<svg xmlns="http://www.w3.org/2000/svg" width="33.009" height="27.701" viewBox="0 0 33.009 27.701">
  <g id="Icon_feather-users" data-name="Icon feather-users" transform="translate(0 -2.852)">
    <path id="Path_9647" data-name="Path 9647" d="M23.325,30.684V27.956A5.456,5.456,0,0,0,17.868,22.5H6.956A5.456,5.456,0,0,0,1.5,27.956v2.728" transform="translate(0 -1.632)" fill="none" stroke="#26c6da" stroke-linecap="round" stroke-linejoin="round" stroke-width="3"/>
    <path id="Path_9648" data-name="Path 9648" d="M18.412,9.956A5.456,5.456,0,1,1,12.956,4.5a5.456,5.456,0,0,1,5.456,5.456Z" transform="translate(-0.544 0)" fill="none" stroke="#26c6da" stroke-linecap="round" stroke-linejoin="round" stroke-width="3"/>
    <path id="Path_9649" data-name="Path 9649" d="M34.092,30.7V27.974A5.456,5.456,0,0,0,30,22.7" transform="translate(-2.583 -1.649)" fill="none" stroke="#26c6da" stroke-linecap="round" stroke-linejoin="round" stroke-width="3"/>
    <path id="Path_9650" data-name="Path 9650" d="M24,4.695a5.456,5.456,0,0,1,0,10.571" transform="translate(-2.039 -0.018)" fill="none" stroke="#26c6da" stroke-linecap="round" stroke-linejoin="round" stroke-width="3"/>
  </g>
</svg>
