<svg id="Group_5591" data-name="Group 5591" xmlns="http://www.w3.org/2000/svg" xmlns:xlink="http://www.w3.org/1999/xlink" width="63.427" height="60.288" viewBox="0 0 63.427 60.288">
  <defs>
    <clipPath id="clip-path">
      <rect id="Rectangle_1197" data-name="Rectangle 1197" width="63.427" height="60.288" fill="#fff"/>
    </clipPath>
  </defs>
  <g id="Group_5587" data-name="Group 5587" clip-path="url(#clip-path)">
    <path id="Path_9643" data-name="Path 9643" d="M57.461,42.47v4.6c-.246.014-.467.038-.687.038q-19.442,0-38.885.019c-.7,0-.915-.24-1.059-.872Q12.637,27.793,8.419,9.339a1.092,1.092,0,0,0-.9-.934C5.243,7.777,2.982,7.1.717,6.446.5,6.383.286,6.306,0,6.212L1.325,1.8c1.267.367,2.493.718,3.715,1.077,2.131.626,4.256,1.275,6.394,1.876a1.033,1.033,0,0,1,.854.889c.634,2.909,1.325,5.806,1.954,8.716.132.609.37.848,1,.768a12.717,12.717,0,0,1,1.516-.012V0h25.93V3.338L57.43,4.9,55.676,15.1h7.751L58,39.786H20.084l.636,2.684ZM57.7,19.83H15.581l3.5,15.394c.233.015.413.036.593.036q17.035,0,34.071.012c.446,0,.625-.125.721-.584.565-2.714,1.169-5.419,1.761-8.127.488-2.234.978-4.467,1.473-6.731M38.006,4.684H21.459V15.1H38.006ZM52,8.983l-9.247-.977v7.062h8.2L52,8.983" fill="#fff"/>
    <path id="Path_9644" data-name="Path 9644" d="M329.383,376.17a4.93,4.93,0,1,1,4.964-4.922,4.944,4.944,0,0,1-4.964,4.922" transform="translate(-279.798 -315.883)" fill="#fff"/>
    <path id="Path_9645" data-name="Path 9645" d="M142.293,371.265a4.935,4.935,0,1,1,4.967,4.905,4.926,4.926,0,0,1-4.967-4.905" transform="translate(-122.705 -315.882)" fill="#fff"/>
  </g>
</svg>
