<svg xmlns="http://www.w3.org/2000/svg" xmlns:xlink="http://www.w3.org/1999/xlink" width="59.578" height="60.917" viewBox="0 0 59.578 60.917">
  <defs>
    <clipPath id="clip-path">
      <rect id="Rectangle_34" data-name="Rectangle 34" width="59.578" height="60.917" fill="#26c6da"/>
    </clipPath>
  </defs>
  <g id="Group_19" data-name="Group 19" clip-path="url(#clip-path)">
    <path id="Path_30" data-name="Path 30" d="M25.907,7.337c-.322-3.7-2.3-5.716-5.956-6.557A30.932,30.932,0,0,0,13.124,0,30.927,30.927,0,0,0,6.3.78C2.638,1.621.662,3.638.34,7.337A77.4,77.4,0,0,0,.1,18.409c.262,4.6,2.189,6.885,6.321,7.773a32.694,32.694,0,0,0,6.7.731,32.7,32.7,0,0,0,6.7-.731c4.132-.888,6.058-3.177,6.321-7.773a77.3,77.3,0,0,0-.237-11.072M21.453,18.519a3.071,3.071,0,0,1-2.873,3.172,35.171,35.171,0,0,1-5.456.486,35.167,35.167,0,0,1-5.456-.486,3.071,3.071,0,0,1-2.873-3.172c-.082-3.36-.13-6.728.018-10.084.092-2.086,1.02-3.171,3.124-3.3q2.585-.164,5.187-.176,2.6.011,5.187.176c2.1.134,3.032,1.219,3.124,3.3.147,3.356.1,6.724.018,10.084" transform="translate(0 0.001)" fill="#26c6da"/>
    <path id="Path_31" data-name="Path 31" d="M124.907,7.337c-.322-3.7-2.3-5.716-5.956-6.557A30.235,30.235,0,0,0,105.3.78c-3.658.841-5.634,2.858-5.956,6.557A77.392,77.392,0,0,0,99.1,18.409c.262,4.6,2.189,6.885,6.321,7.773a32.694,32.694,0,0,0,6.7.731,32.7,32.7,0,0,0,6.7-.731c4.132-.888,6.058-3.177,6.321-7.773a77.3,77.3,0,0,0-.237-11.072m-4.454,11.182a3.071,3.071,0,0,1-2.873,3.172,35.171,35.171,0,0,1-5.456.486,35.168,35.168,0,0,1-5.456-.486,3.071,3.071,0,0,1-2.873-3.172c-.082-3.36-.13-6.728.018-10.084.092-2.086,1.02-3.171,3.124-3.3q2.585-.164,5.187-.176,2.6.011,5.187.176c2.1.134,3.032,1.219,3.124,3.3.147,3.356.1,6.724.018,10.084" transform="translate(-65.67 0.001)" fill="#26c6da"/>
    <path id="Path_32" data-name="Path 32" d="M25.907,108.337c-.322-3.7-2.3-5.716-5.956-6.557A30.931,30.931,0,0,0,13.124,101a30.927,30.927,0,0,0-6.828.781c-3.658.841-5.634,2.858-5.956,6.557A77.4,77.4,0,0,0,.1,119.409c.262,4.6,2.189,6.885,6.321,7.773a32.7,32.7,0,0,0,6.7.731,32.7,32.7,0,0,0,6.7-.731c4.132-.888,6.058-3.177,6.321-7.773a77.3,77.3,0,0,0-.237-11.072m-4.454,11.182a3.071,3.071,0,0,1-2.873,3.172,35.172,35.172,0,0,1-5.456.486,35.168,35.168,0,0,1-5.456-.486,3.071,3.071,0,0,1-2.873-3.172c-.082-3.36-.13-6.728.018-10.084.092-2.086,1.02-3.171,3.124-3.3q2.585-.164,5.187-.176,2.6.011,5.187.176c2.1.134,3.032,1.219,3.124,3.3.147,3.356.1,6.724.018,10.084" transform="translate(0 -66.996)" fill="#26c6da"/>
    <path id="Path_33" data-name="Path 33" d="M124.907,108.337c-.322-3.7-2.3-5.716-5.956-6.557a30.234,30.234,0,0,0-13.656,0c-3.658.841-5.634,2.858-5.956,6.557a77.392,77.392,0,0,0-.237,11.072c.262,4.6,2.189,6.885,6.321,7.773a31.06,31.06,0,0,0,13.4,0c4.132-.888,6.058-3.177,6.321-7.773a77.3,77.3,0,0,0-.237-11.072m-4.454,11.182a3.071,3.071,0,0,1-2.873,3.172,30.885,30.885,0,0,1-10.913,0,3.071,3.071,0,0,1-2.873-3.172c-.082-3.36-.13-6.728.018-10.084.092-2.086,1.02-3.171,3.124-3.3q2.585-.164,5.187-.176,2.6.011,5.187.176c2.1.134,3.032,1.219,3.124,3.3.147,3.356.1,6.724.018,10.084" transform="translate(-65.67 -66.996)" fill="#26c6da"/>
  </g>
</svg>
