<svg xmlns="http://www.w3.org/2000/svg" xmlns:xlink="http://www.w3.org/1999/xlink" width="26.737" height="27.338" viewBox="0 0 26.737 27.338">
  <defs>
    <clipPath id="clip-path">
      <rect id="Rectangle_34" data-name="Rectangle 34" width="26.737" height="27.338" fill="#fff"/>
    </clipPath>
  </defs>
  <g id="Group_20" data-name="Group 20" transform="translate(0 0)">
    <g id="Group_19" data-name="Group 19" transform="translate(0 0)" clip-path="url(#clip-path)">
      <path id="Path_30" data-name="Path 30" d="M11.627,3.292A3.042,3.042,0,0,0,8.954.35,13.882,13.882,0,0,0,5.89,0,13.88,13.88,0,0,0,2.825.35,3.043,3.043,0,0,0,.152,3.292,34.733,34.733,0,0,0,.046,8.261c.118,2.062.982,3.09,2.837,3.488a14.673,14.673,0,0,0,3.007.328A14.674,14.674,0,0,0,8.9,11.749c1.854-.4,2.719-1.426,2.837-3.488a34.689,34.689,0,0,0-.106-4.969m-2,5.018A1.378,1.378,0,0,1,8.338,9.734a15.784,15.784,0,0,1-2.449.218,15.782,15.782,0,0,1-2.449-.218A1.378,1.378,0,0,1,2.151,8.31c-.037-1.508-.058-3.019.008-4.525A1.34,1.34,0,0,1,3.562,2.3q1.16-.074,2.328-.079T8.218,2.3a1.339,1.339,0,0,1,1.4,1.483c.066,1.506.045,3.017.008,4.525" transform="translate(0 0.001)" fill="#fff"/>
      <path id="Path_31" data-name="Path 31" d="M110.627,3.292A3.042,3.042,0,0,0,107.954.35a13.569,13.569,0,0,0-6.128,0,3.042,3.042,0,0,0-2.673,2.943,34.731,34.731,0,0,0-.106,4.969c.118,2.062.982,3.09,2.837,3.488a14.673,14.673,0,0,0,3.007.328,14.674,14.674,0,0,0,3.007-.328c1.854-.4,2.719-1.426,2.837-3.488a34.69,34.69,0,0,0-.106-4.969m-2,5.018a1.378,1.378,0,0,1-1.289,1.424,15.784,15.784,0,0,1-2.449.218,15.782,15.782,0,0,1-2.449-.218,1.378,1.378,0,0,1-1.289-1.424c-.037-1.508-.058-3.019.008-4.525a1.34,1.34,0,0,1,1.4-1.483q1.16-.074,2.328-.079t2.328.079a1.339,1.339,0,0,1,1.4,1.483c.066,1.506.045,3.017.008,4.525" transform="translate(-84.042 0.001)" fill="#fff"/>
      <path id="Path_32" data-name="Path 32" d="M11.627,104.292a3.042,3.042,0,0,0-2.673-2.943A13.882,13.882,0,0,0,5.89,101a13.88,13.88,0,0,0-3.064.351,3.043,3.043,0,0,0-2.673,2.943,34.733,34.733,0,0,0-.106,4.969c.118,2.062.982,3.09,2.837,3.488a14.673,14.673,0,0,0,3.007.328,14.674,14.674,0,0,0,3.007-.328c1.854-.4,2.719-1.426,2.837-3.488a34.688,34.688,0,0,0-.106-4.969m-2,5.018a1.378,1.378,0,0,1-1.289,1.424,15.782,15.782,0,0,1-2.449.218,15.78,15.78,0,0,1-2.449-.218,1.378,1.378,0,0,1-1.289-1.424c-.037-1.508-.058-3.019.008-4.525a1.34,1.34,0,0,1,1.4-1.483q1.16-.074,2.328-.079t2.328.079a1.339,1.339,0,0,1,1.4,1.483c.066,1.506.045,3.017.008,4.525" transform="translate(0 -85.739)" fill="#fff"/>
      <path id="Path_33" data-name="Path 33" d="M110.627,104.292a3.042,3.042,0,0,0-2.673-2.943,13.569,13.569,0,0,0-6.128,0,3.043,3.043,0,0,0-2.673,2.943,34.731,34.731,0,0,0-.106,4.969c.118,2.062.982,3.09,2.837,3.488a13.939,13.939,0,0,0,6.014,0c1.854-.4,2.719-1.426,2.837-3.488a34.69,34.69,0,0,0-.106-4.969m-2,5.018a1.378,1.378,0,0,1-1.289,1.424,13.86,13.86,0,0,1-4.9,0,1.378,1.378,0,0,1-1.289-1.424c-.037-1.508-.058-3.019.008-4.525a1.34,1.34,0,0,1,1.4-1.483q1.16-.074,2.328-.079t2.328.079a1.339,1.339,0,0,1,1.4,1.483c.066,1.506.045,3.017.008,4.525" transform="translate(-84.042 -85.739)" fill="#fff"/>
    </g>
  </g>
</svg>
