<svg xmlns="http://www.w3.org/2000/svg" width="28.889" height="24.058" viewBox="0 0 28.889 24.058">
  <g id="Icon_feather-users" data-name="Icon feather-users" transform="translate(-0.5 -3.442)">
    <path id="Path_9647" data-name="Path 9647" d="M21.056,29.833V27.389A4.889,4.889,0,0,0,16.167,22.5H6.389A4.889,4.889,0,0,0,1.5,27.389v2.444" transform="translate(0 -3.333)" fill="none" stroke="#848484" stroke-linecap="round" stroke-linejoin="round" stroke-width="2"/>
    <path id="Path_9648" data-name="Path 9648" d="M17.278,9.389A4.889,4.889,0,1,1,12.389,4.5a4.889,4.889,0,0,1,4.889,4.889Z" transform="translate(-1.111 0)" fill="none" stroke="#848484" stroke-linecap="round" stroke-linejoin="round" stroke-width="2"/>
    <path id="Path_9649" data-name="Path 9649" d="M33.667,29.869V27.425A4.889,4.889,0,0,0,30,22.7" transform="translate(-5.278 -3.369)" fill="none" stroke="#848484" stroke-linecap="round" stroke-linejoin="round" stroke-width="2"/>
    <path id="Path_9650" data-name="Path 9650" d="M24,4.7a4.889,4.889,0,0,1,0,9.472" transform="translate(-4.167 -0.036)" fill="none" stroke="#848484" stroke-linecap="round" stroke-linejoin="round" stroke-width="2"/>
  </g>
</svg>
