<svg xmlns="http://www.w3.org/2000/svg" width="29.796" height="27.338" viewBox="0 0 29.796 27.338">
  <path id="Icon_material-favorite-border" data-name="Icon material-favorite-border" d="M24.6,4.5a8.922,8.922,0,0,0-6.7,3.114,8.922,8.922,0,0,0-6.7-3.114A8.114,8.114,0,0,0,3,12.694c0,5.632,5.065,10.22,12.738,17.192l2.16,1.952,2.16-1.967C27.731,22.914,32.8,18.325,32.8,12.694A8.114,8.114,0,0,0,24.6,4.5ZM18.047,27.667l-.149.149-.149-.149C10.658,21.246,5.98,17,5.98,12.694A5.092,5.092,0,0,1,11.194,7.48,5.824,5.824,0,0,1,16.513,11H19.3A5.787,5.787,0,0,1,24.6,7.48a5.092,5.092,0,0,1,5.214,5.214C29.817,17,25.139,21.246,18.047,27.667Z" transform="translate(-3 -4.5)" fill="#fff"/>
</svg>
