<svg xmlns="http://www.w3.org/2000/svg" width="64.644" height="45.25" viewBox="0 0 64.644 45.25">
  <path id="Icon_awesome-money-bill-wave-alt" data-name="Icon awesome-money-bill-wave-alt" d="M62.74,4.519A29.911,29.911,0,0,0,50.982,2.25c-12.441,0-24.88,6.3-37.321,6.3A30.646,30.646,0,0,1,4.3,7.161,3.454,3.454,0,0,0,3.257,7,3.214,3.214,0,0,0,0,10.21V42.255A3.212,3.212,0,0,0,1.9,45.23,29.894,29.894,0,0,0,13.661,47.5c12.441,0,24.881-6.3,37.322-6.3a30.646,30.646,0,0,1,9.358,1.386,3.454,3.454,0,0,0,1.045.164,3.214,3.214,0,0,0,3.257-3.213V7.5a3.216,3.216,0,0,0-1.9-2.977ZM32.321,34.571c-4.463,0-8.08-4.342-8.08-9.7s3.618-9.7,8.08-9.7,8.08,4.341,8.08,9.7S36.783,34.571,32.321,34.571Z" transform="translate(0 -2.25)" fill="#fff"/>
</svg>
