<svg xmlns="http://www.w3.org/2000/svg" width="18.177" height="16.678" viewBox="0 0 18.177 16.678">
  <path id="Icon_material-favorite-border" data-name="Icon material-favorite-border" d="M16.179,4.5a5.443,5.443,0,0,0-4.09,1.9A5.443,5.443,0,0,0,8,4.5a4.95,4.95,0,0,0-5,5c0,3.436,3.09,6.235,7.771,10.488l1.318,1.191,1.318-1.2c4.681-4.244,7.771-7.044,7.771-10.479A4.95,4.95,0,0,0,16.179,4.5Zm-4,14.133-.091.091L12,18.633c-4.326-3.917-7.18-6.507-7.18-9.134A3.106,3.106,0,0,1,8,6.318a3.553,3.553,0,0,1,3.245,2.145h1.7a3.531,3.531,0,0,1,3.236-2.145A3.106,3.106,0,0,1,19.36,9.5C19.36,12.125,16.506,14.716,12.18,18.633Z" transform="translate(-3 -4.5)" fill="#d3d3d3"/>
</svg>
