<svg xmlns="http://www.w3.org/2000/svg" width="31.149" height="31.149" viewBox="0 0 31.149 31.149">
  <path id="Icon_awesome-user-circle" data-name="Icon awesome-user-circle" d="M15.575.563A15.575,15.575,0,1,0,31.149,16.137,15.572,15.572,0,0,0,15.575.563Zm0,6.029a5.526,5.526,0,1,1-5.526,5.526A5.527,5.527,0,0,1,15.575,6.591Zm0,21.6a12.034,12.034,0,0,1-9.2-4.283,7,7,0,0,1,6.186-3.755,1.537,1.537,0,0,1,.446.069,8.315,8.315,0,0,0,2.569.433,8.283,8.283,0,0,0,2.569-.433,1.537,1.537,0,0,1,.446-.069,7,7,0,0,1,6.186,3.755A12.034,12.034,0,0,1,15.575,28.195Z" transform="translate(0 -0.563)" fill="#d3d3d3"/>
</svg>
