<svg xmlns="http://www.w3.org/2000/svg" xmlns:xlink="http://www.w3.org/1999/xlink" width="30.5" height="30.5" viewBox="0 0 30.5 30.5">
  <defs>
    <clipPath id="clip-path">
      <rect width="30.5" height="30.5" fill="none"/>
    </clipPath>
  </defs>
  <g id="Icon_feather-settings" data-name="Icon feather-settings" clip-path="url(#clip-path)">
    <g id="Icon_feather-settings-2" data-name="Icon feather-settings" transform="translate(-0.5 -0.5)">
      <path id="Path_9651" data-name="Path 9651" d="M21.273,17.386A3.886,3.886,0,1,1,17.386,13.5,3.886,3.886,0,0,1,21.273,17.386Z" transform="translate(-1.636 -1.636)" fill="none" stroke="#848484" stroke-linecap="round" stroke-linejoin="round" stroke-width="2"/>
      <path id="Path_9652" data-name="Path 9652" d="M25.336,19.636a2.138,2.138,0,0,0,.427,2.358l.078.078a2.592,2.592,0,1,1-3.666,3.666L22.1,25.66a2.155,2.155,0,0,0-3.653,1.529v.22a2.591,2.591,0,0,1-5.182,0v-.117a2.137,2.137,0,0,0-1.4-1.956,2.137,2.137,0,0,0-2.358.427l-.078.078a2.592,2.592,0,1,1-3.666-3.666L5.84,22.1a2.155,2.155,0,0,0-1.529-3.653h-.22a2.591,2.591,0,1,1,0-5.182h.117a2.137,2.137,0,0,0,1.956-1.4,2.138,2.138,0,0,0-.428-2.358l-.078-.078A2.592,2.592,0,1,1,9.325,5.762L9.4,5.84a2.138,2.138,0,0,0,2.358.428h.1a2.138,2.138,0,0,0,1.3-1.956v-.22a2.591,2.591,0,0,1,5.182,0v.117a2.155,2.155,0,0,0,3.653,1.529l.078-.078a2.592,2.592,0,1,1,3.666,3.666L25.66,9.4a2.137,2.137,0,0,0-.428,2.358v.1a2.138,2.138,0,0,0,1.956,1.3h.22a2.591,2.591,0,0,1,0,5.182h-.117a2.137,2.137,0,0,0-1.956,1.3Z" transform="translate(0 0)" fill="none" stroke="#848484" stroke-linecap="round" stroke-linejoin="round" stroke-width="2"/>
    </g>
  </g>
</svg>
