<svg xmlns="http://www.w3.org/2000/svg" xmlns:xlink="http://www.w3.org/1999/xlink" width="35.198" height="28.587" viewBox="0 0 35.198 28.587">
  <defs>
    <linearGradient id="linear-gradient" x1="0.5" x2="0.5" y2="1" gradientUnits="objectBoundingBox">
      <stop offset="0" stop-color="#26c6da"/>
      <stop offset="1" stop-color="#0288d1"/>
    </linearGradient>
  </defs>
  <path id="Icon_awesome-twitter" data-name="Icon awesome-twitter" d="M31.58,10.505c.022.313.022.625.022.938,0,9.536-7.258,20.525-20.525,20.525A20.386,20.386,0,0,1,0,28.73a14.924,14.924,0,0,0,1.742.089A14.447,14.447,0,0,0,10.7,25.737a7.227,7.227,0,0,1-6.745-5,9.1,9.1,0,0,0,1.362.112,7.63,7.63,0,0,0,1.9-.246,7.215,7.215,0,0,1-5.785-7.08v-.089a7.265,7.265,0,0,0,3.261.916A7.225,7.225,0,0,1,2.457,4.7a20.5,20.5,0,0,0,14.874,7.549,8.144,8.144,0,0,1-.179-1.653A7.221,7.221,0,0,1,29.637,5.659a14.2,14.2,0,0,0,4.578-1.742,7.194,7.194,0,0,1-3.171,3.975A14.461,14.461,0,0,0,35.2,6.776a15.507,15.507,0,0,1-3.618,3.73Z" transform="translate(0 -3.381)" fill="url(#linear-gradient)"/>
</svg>
