<svg xmlns="http://www.w3.org/2000/svg" width="23.16" height="22.198" viewBox="0 0 23.16 22.198">
  <g id="Icon_feather-shopping-cart" data-name="Icon feather-shopping-cart" transform="translate(-0.5 -0.5)">
    <path id="Path_206" data-name="Path 206" d="M13.924,30.962A.962.962,0,1,1,12.962,30,.962.962,0,0,1,13.924,30.962Z" transform="translate(-3.767 -10.226)" fill="none" stroke="#fff" stroke-linecap="round" stroke-linejoin="round" stroke-width="2"/>
    <path id="Path_207" data-name="Path 207" d="M30.424,30.962A.962.962,0,1,1,29.462,30,.962.962,0,0,1,30.424,30.962Z" transform="translate(-9.687 -10.226)" fill="none" stroke="#fff" stroke-linecap="round" stroke-linejoin="round" stroke-width="2"/>
    <path id="Path_208" data-name="Path 208" d="M1.5,1.5H5.347L7.925,14.379a1.924,1.924,0,0,0,1.924,1.549H19.2a1.924,1.924,0,0,0,1.924-1.549l1.539-8.07H6.309" fill="none" stroke="#fff" stroke-linecap="round" stroke-linejoin="round" stroke-width="2"/>
  </g>
</svg>
