<svg xmlns="http://www.w3.org/2000/svg" width="9.101" height="9.105" viewBox="0 0 9.101 9.105">
  <g id="Icon_ionic-ios-close-circle-outline" data-name="Icon ionic-ios-close-circle-outline" transform="translate(-10.632 -10.628)">
    <path id="Path_9550" data-name="Path 9550" d="M21.192,19.907,18.2,16.914l2.993-2.993a.908.908,0,1,0-1.283-1.283l-2.993,2.993-2.993-2.993a.908.908,0,0,0-1.283,1.283l2.993,2.993-2.993,2.993a.877.877,0,0,0,0,1.283.9.9,0,0,0,1.283,0L16.915,18.2l2.993,2.993a.912.912,0,0,0,1.283,0A.9.9,0,0,0,21.192,19.907Z" transform="translate(-1.728 -1.727)"/>
  </g>
</svg>
