<svg xmlns="http://www.w3.org/2000/svg" width="17.076" height="22.87" viewBox="0 0 17.076 22.87">
  <path id="Path_220" data-name="Path 220" d="M324.707,40.335a8.667,8.667,0,0,1,7.7-8.771,8.48,8.48,0,0,1,9.184,6.917,8.305,8.305,0,0,1-1.407,6.743c-1.162,1.588-2.592,2.98-3.77,4.558-.965,1.293-1.727,2.737-2.6,4.1-.138.216-.372.5-.574.511a.836.836,0,0,1-.6-.466,23.019,23.019,0,0,0-4.2-5.994,29.462,29.462,0,0,1-2.773-3.673A6.944,6.944,0,0,1,324.707,40.335Zm13.077-.287a4.577,4.577,0,0,0-4.605-4.584,4.578,4.578,0,1,0,.138,9.155A4.535,4.535,0,0,0,337.784,40.048Z" transform="translate(-324.703 -31.524)" fill="#26c6da"/>
</svg>
