<svg xmlns="http://www.w3.org/2000/svg" width="25.392" height="25.392" viewBox="0 0 25.392 25.392">
  <path id="Icon_feather-message-circle" data-name="Icon feather-message-circle" d="M27.892,15.546a10.89,10.89,0,0,1-1.17,4.938,11.046,11.046,0,0,1-9.877,6.108,10.89,10.89,0,0,1-4.938-1.17L4.5,27.892l2.469-7.407A10.89,10.89,0,0,1,5.8,15.546,11.046,11.046,0,0,1,11.907,5.67,10.89,10.89,0,0,1,16.846,4.5h.65a11.02,11.02,0,0,1,10.4,10.4Z" transform="translate(-3.5 -3.5)" fill="none" stroke="#848484" stroke-linecap="round" stroke-linejoin="round" stroke-width="2"/>
</svg>
