<svg xmlns="http://www.w3.org/2000/svg" xmlns:xlink="http://www.w3.org/1999/xlink" width="29.796" height="31.009" viewBox="0 0 29.796 31.009">
  <defs>
    <clipPath id="clip-path">
      <rect id="Rectangle_1121" data-name="Rectangle 1121" width="29.796" height="31.009" fill="#fff"/>
    </clipPath>
  </defs>
  <g id="Group_5511" data-name="Group 5511" transform="translate(0 0)">
    <g id="Group_5510" data-name="Group 5510" transform="translate(0 0)" clip-path="url(#clip-path)">
      <path id="Path_9535" data-name="Path 9535" d="M29.788,15.6c0,2.51-.01,5.021.008,7.531a1.019,1.019,0,0,1-.652,1.048c-4.464,2.183-8.926,4.371-13.368,6.6a1.661,1.661,0,0,1-1.687,0Q7.439,27.452.754,24.2a1.087,1.087,0,0,1-.692-1.116C.067,19.442.044,15.8.029,12.159.022,10.724.017,9.289,0,7.854a.925.925,0,0,1,.574-.929q6.01-2.948,12.014-5.911c.6-.295,1.2-.587,1.792-.889a1.038,1.038,0,0,1,1,0Q21.725,3.271,28.081,6.4c.338.167.676.333,1.022.48a1.015,1.015,0,0,1,.656,1.06c-.012,2.554-.006,5.108-.006,7.662Zm-1.5-6.7c-.224.093-.331.131-.433.181Q21.943,12,16.032,14.9a.617.617,0,0,0-.4.662q.033,6.55.04,13.1c0,.136.017.271.029.45.195-.086.328-.139.457-.2,3.858-1.9,7.711-3.819,11.58-5.7a.9.9,0,0,0,.571-.993c-.032-3.351-.025-6.7-.03-10.053,0-1.054,0-2.109,0-3.257m-14.1,20.227c0-.56,0-1.037,0-1.515-.008-3.989-.022-7.978-.018-11.966a.732.732,0,0,0-.5-.779c-.963-.437-1.9-.936-2.847-1.4-.75-.369-1.5-.726-2.311-1.114,0,.2,0,.343,0,.484,0,1.814,0,3.628.014,5.442a.767.767,0,0,1-.427.786c-.534.254-1.046-.132-1.051-.791-.013-2.1-.028-4.208-.028-6.312a.512.512,0,0,0-.333-.533c-.967-.463-1.927-.94-2.889-1.414-.736-.362-1.471-.727-2.24-1.107a1.787,1.787,0,0,0-.038.244c.01,4.426.027,8.852.026,13.278a.65.65,0,0,0,.423.688q5.233,2.559,10.45,5.148c.569.281,1.14.556,1.771.864M20.414,4.29c-1.844-.91-3.581-1.772-5.326-2.616a.618.618,0,0,0-.475.015Q8.724,4.58,2.846,7.493c-.105.052-.2.122-.353.214C4.3,8.6,6.034,9.463,7.78,10.3a.742.742,0,0,0,.554-.062q5.074-2.481,10.137-4.984c.619-.3,1.236-.614,1.944-.965M9.745,11.237a1.936,1.936,0,0,0,.192.135c1.573.777,3.143,1.559,4.724,2.318a.676.676,0,0,0,.514-.034q5.391-2.638,10.77-5.3c.421-.208.838-.425,1.318-.668-.191-.107-.31-.182-.436-.244C25.371,6.73,23.91,6.021,22.46,5.291a.67.67,0,0,0-.682,0q-5.552,2.75-11.114,5.48c-.293.144-.582.295-.92.466" transform="translate(0.001 0)" fill="#fff"/>
    </g>
  </g>
</svg>
