<svg id="Group_5588" data-name="Group 5588" xmlns="http://www.w3.org/2000/svg" xmlns:xlink="http://www.w3.org/1999/xlink" width="30.392" height="28.888" viewBox="0 0 30.392 28.888">
  <defs>
    <clipPath id="clip-path">
      <rect id="Rectangle_1197" data-name="Rectangle 1197" width="30.392" height="28.888" fill="#848484"/>
    </clipPath>
  </defs>
  <g id="Group_5587" data-name="Group 5587" clip-path="url(#clip-path)">
    <path id="Path_9643" data-name="Path 9643" d="M27.534,20.35v2.2c-.118.007-.224.018-.329.018q-9.316,0-18.632.009c-.336,0-.439-.115-.507-.418Q6.055,13.318,4.034,4.475A.523.523,0,0,0,3.6,4.027C2.512,3.727,1.429,3.4.343,3.089c-.1-.03-.206-.067-.343-.112L.635.864c.607.176,1.194.344,1.78.516,1.021.3,2.039.611,3.064.9a.5.5,0,0,1,.409.426c.3,1.394.635,2.782.936,4.177.063.292.177.406.478.368a6.094,6.094,0,0,1,.727-.006V0H20.454V1.6l7.065.749-.84,4.887h3.714l-2.6,11.829H9.624l.3,1.286ZM27.648,9.5H7.466l1.677,7.376c.112.007.2.017.284.017q8.163,0,16.326.006c.214,0,.3-.06.345-.28.271-1.3.56-2.6.844-3.894.234-1.07.468-2.14.706-3.226M18.211,2.244H10.282V7.236h7.929ZM24.917,4.3l-4.431-.468V7.22h3.929l.5-2.916" fill="#848484"/>
    <path id="Path_9644" data-name="Path 9644" d="M326.821,371.035a2.362,2.362,0,1,1,2.379-2.359,2.369,2.369,0,0,1-2.379,2.359" transform="translate(-303.061 -342.147)" fill="#848484"/>
    <path id="Path_9645" data-name="Path 9645" d="M142.293,368.684a2.365,2.365,0,1,1,2.38,2.35,2.361,2.361,0,0,1-2.38-2.35" transform="translate(-132.907 -342.146)" fill="#848484"/>
  </g>
</svg>
