<svg id="Group_4801" data-name="Group 4801" xmlns="http://www.w3.org/2000/svg" xmlns:xlink="http://www.w3.org/1999/xlink" width="51.956" height="57.04" viewBox="0 0 51.956 57.04">
  <defs>
    <clipPath id="clip-path">
      <rect id="Rectangle_846" data-name="Rectangle 846" width="51.956" height="57.04" fill="#26c6da"/>
    </clipPath>
  </defs>
  <g id="Group_4800" data-name="Group 4800" clip-path="url(#clip-path)">
    <path id="Path_9169" data-name="Path 9169" d="M4.483,11.631c-.906,0-1.765,0-2.624,0a1.791,1.791,0,1,1-.025-3.58c.752-.01,1.5,0,2.256,0h.391c0-.363,0-.693,0-1.023,0-1.418-.01-2.836,0-4.255A2.671,2.671,0,0,1,6.565.065a3.154,3.154,0,0,1,.7-.058q9.67,0,19.339,0Q35.617.009,44.625,0A2.705,2.705,0,0,1,47,1.165a2.787,2.787,0,0,1,.474,1.675c-.006,1.59,0,3.18-.006,4.77,0,.127,0,.255,0,.416.139.008.252.02.365.021.784,0,1.569-.014,2.353.006a1.788,1.788,0,0,1,.285,3.549,2.155,2.155,0,0,1-.416.027c-.827,0-1.654,0-2.482,0a.675.675,0,0,0-.113.031c0,.207,0,.429,0,.651q0,8.106.008,16.212,0,8.718,0,17.436,0,4.3,0,8.605a2.235,2.235,0,0,1-3.568,1.941c-1.128-.727-2.251-1.461-3.377-2.191-1.423-.923-2.85-1.84-4.268-2.772a.427.427,0,0,0-.542,0q-3.926,2.468-7.86,4.922a3.327,3.327,0,0,1-3.047.358,3.6,3.6,0,0,1-.683-.356q-3.848-2.442-7.686-4.9a.49.49,0,0,0-.625,0C13.3,53.185,10.763,54.785,8.239,56.4a2.682,2.682,0,0,1-1.873.539A2.192,2.192,0,0,1,4.509,55.02a4.9,4.9,0,0,1-.029-.611q0-10.669,0-21.337,0-10.524,0-21.047Zm3.592.007v40.6c.094-.052.159-.084.22-.123,1.947-1.239,3.9-2.469,5.838-3.723a3.345,3.345,0,0,1,3.92-.036c2.55,1.631,5.11,3.248,7.658,4.884a.443.443,0,0,0,.565-.006q3.938-2.479,7.888-4.939a3.141,3.141,0,0,1,3.53-.066c1.849,1.153,3.662,2.364,5.49,3.55.219.142.442.278.689.432V11.639Zm0-3.615h35.8V3.587H8.076Z" transform="translate(0 0)" fill="#26c6da"/>
    <path id="Path_9170" data-name="Path 9170" d="M120.256,221.488q5.575,0,11.15,0a1.808,1.808,0,0,1,1.737,1.156,1.778,1.778,0,0,1-.5,1.993,1.757,1.757,0,0,1-1.212.445c-3.029,0-6.058-.005-9.087-.006q-4.608,0-9.216.007c-1.321,0-2.643,0-3.964,0a1.8,1.8,0,1,1,.008-3.589q5.543,0,11.086,0Z" transform="translate(-93.851 -193.739)" fill="#26c6da"/>
    <path id="Path_9171" data-name="Path 9171" d="M117.122,146.42c-2.674,0-5.349,0-8.023,0a1.8,1.8,0,0,1-1.769-1.487,1.768,1.768,0,0,1,1.234-2.007,2.865,2.865,0,0,1,.794-.1q5.494-.008,10.988,0c1.6,0,3.2-.006,4.8,0a1.8,1.8,0,1,1,0,3.592c-2.277.006-4.554,0-6.831,0h-1.192Z" transform="translate(-93.865 -124.93)" fill="#26c6da"/>
    <path id="Path_9172" data-name="Path 9172" d="M117.131,303.777q-3.947,0-7.893,0a1.935,1.935,0,0,1-1.418-.5,1.784,1.784,0,0,1,1.213-3.085q8.039,0,16.079,0a1.788,1.788,0,1,1,.011,3.574c-2.664.009-5.327,0-7.991,0Z" transform="translate(-93.819 -262.585)" fill="#26c6da"/>
  </g>
</svg>
