<svg id="Group_5590" data-name="Group 5590" xmlns="http://www.w3.org/2000/svg" xmlns:xlink="http://www.w3.org/1999/xlink" width="27.243" height="27.137" viewBox="0 0 27.243 27.137">
  <defs>
    <clipPath id="clip-path">
      <rect id="Rectangle_1199" data-name="Rectangle 1199" width="27.243" height="27.137" fill="#848484"/>
    </clipPath>
  </defs>
  <g id="Group_5589" data-name="Group 5589" clip-path="url(#clip-path)">
    <path id="Path_9646" data-name="Path 9646" d="M0,13.553C0,11.574.014,9.594,0,7.614A1.458,1.458,0,0,1,.9,6.155Q6.834,3.217,12.747.233a1.766,1.766,0,0,1,1.743,0Q20.4,3.212,26.337,6.152a1.464,1.464,0,0,1,.9,1.458c-.012,3.872-.027,7.743,0,11.615a1.8,1.8,0,0,1-1.14,1.855c-3.925,1.923-7.827,3.895-11.73,5.862a1.531,1.531,0,0,1-1.5,0Q6.959,23.961,1.026,21.017A1.628,1.628,0,0,1,0,19.361c.027-1.935.009-3.871.009-5.807H0M12.384,23.931c0-3.182.009-6.235-.022-9.287,0-.2-.274-.469-.486-.578-1.851-.951-3.717-1.874-5.579-2.8-1.248-.623-2.5-1.241-3.773-1.875a1.594,1.594,0,0,0-.051.247c0,2.988-.012,5.976.015,8.963a.872.872,0,0,0,.445.592c1.773.917,3.563,1.8,5.348,2.7,1.33.665,2.661,1.326,4.1,2.045m2.471-.041c.172-.062.274-.088.366-.134,3.062-1.529,6.118-3.069,9.188-4.581.367-.181.363-.43.363-.741q0-4.251,0-8.5c0-.162-.016-.325-.027-.531-.149.06-.23.086-.305.124-3.057,1.528-6.11,3.063-9.174,4.576a.666.666,0,0,0-.415.714c.011,2.219.006,4.438.006,6.657V23.89M23.238,7.366c-1.046-.526-2.008-.99-2.949-1.493a.939.939,0,0,0-.975.012c-2.841,1.437-5.691,2.855-8.538,4.281-.165.082-.32.184-.543.314,1.024.513,1.973.967,2.9,1.462a.919.919,0,0,0,.966.007c1.676-.865,3.369-1.7,5.055-2.542l4.082-2.041M17.051,4.273c-1.043-.525-1.987-.981-2.909-1.475a.992.992,0,0,0-1.03,0c-2.84,1.439-5.692,2.855-8.54,4.28-.159.08-.309.178-.534.308C5.078,7.9,6.026,8.408,7,8.845a1.194,1.194,0,0,0,.891-.007C9.46,8.093,11,7.3,12.553,6.524l4.5-2.251" transform="translate(0 0)" fill="#848484"/>
  </g>
</svg>
