<svg xmlns="http://www.w3.org/2000/svg" width="69.732" height="58.418" viewBox="0 0 69.732 58.418">
  <g id="Icon_feather-users" data-name="Icon feather-users" transform="translate(1.5 -1.226)">
    <path id="Path_9647" data-name="Path 9647" d="M47.85,39.881V34.088A11.588,11.588,0,0,0,36.263,22.5H13.088A11.588,11.588,0,0,0,1.5,34.088v5.794" transform="translate(0 16.763)" fill="none" stroke="#fff" stroke-linecap="round" stroke-linejoin="round" stroke-width="6"/>
    <path id="Path_9648" data-name="Path 9648" d="M30.675,16.088A11.588,11.588,0,1,1,19.088,4.5,11.588,11.588,0,0,1,30.675,16.088Z" transform="translate(5.588 0)" fill="none" stroke="#fff" stroke-linecap="round" stroke-linejoin="round" stroke-width="6"/>
    <path id="Path_9649" data-name="Path 9649" d="M38.691,39.7V33.906A11.588,11.588,0,0,0,30,22.7" transform="translate(26.541 16.944)" fill="none" stroke="#fff" stroke-linecap="round" stroke-linejoin="round" stroke-width="6"/>
    <path id="Path_9650" data-name="Path 9650" d="M24,4.695a11.588,11.588,0,0,1,0,22.451" transform="translate(20.953 0.182)" fill="none" stroke="#fff" stroke-linecap="round" stroke-linejoin="round" stroke-width="6"/>
  </g>
</svg>
