<svg xmlns="http://www.w3.org/2000/svg" width="31.398" height="32.132" viewBox="0 0 31.398 32.132">
  <path id="Icon_material-settings" data-name="Icon material-settings" d="M29.688,19.817a11.935,11.935,0,0,0,.107-1.5,11.935,11.935,0,0,0-.107-1.5l3.232-2.527a.773.773,0,0,0,.184-.98l-3.063-5.3a.77.77,0,0,0-.934-.337L25.292,9.2A11.19,11.19,0,0,0,22.7,7.7l-.582-4.059A.747.747,0,0,0,21.371,3H15.244a.747.747,0,0,0-.75.643L13.912,7.7a11.767,11.767,0,0,0-2.588,1.5L7.51,7.671a.747.747,0,0,0-.934.337l-3.063,5.3a.755.755,0,0,0,.184.98l3.232,2.527a12.146,12.146,0,0,0-.107,1.5,12.147,12.147,0,0,0,.107,1.5L3.7,22.344a.773.773,0,0,0-.184.98l3.063,5.3a.77.77,0,0,0,.934.337l3.814-1.532a11.19,11.19,0,0,0,2.588,1.5l.582,4.059a.747.747,0,0,0,.75.643h6.126a.747.747,0,0,0,.75-.643L22.7,28.93a11.767,11.767,0,0,0,2.588-1.5l3.814,1.532a.747.747,0,0,0,.934-.337l3.063-5.3a.773.773,0,0,0-.184-.98l-3.232-2.527Zm-11.38,3.86a5.361,5.361,0,1,1,5.361-5.361A5.367,5.367,0,0,1,18.308,23.677Z" transform="translate(-2.602 -2.25)" fill="none" stroke="#fff" stroke-width="1.5"/>
</svg>
