<svg xmlns="http://www.w3.org/2000/svg" width="59.083" height="56.625" viewBox="0 0 59.083 56.625">
  <g id="Icon_feather-shopping-cart" data-name="Icon feather-shopping-cart" transform="translate(1 1)">
    <path id="Path_206" data-name="Path 206" d="M16.917,32.458A2.458,2.458,0,1,1,14.458,30,2.458,2.458,0,0,1,16.917,32.458Z" transform="translate(6.708 18.208)" fill="none" stroke="#26c6da" stroke-linecap="round" stroke-linejoin="round" stroke-width="5"/>
    <path id="Path_207" data-name="Path 207" d="M33.417,32.458A2.458,2.458,0,1,1,30.958,30,2.458,2.458,0,0,1,33.417,32.458Z" transform="translate(17.25 18.208)" fill="none" stroke="#26c6da" stroke-linecap="round" stroke-linejoin="round" stroke-width="5"/>
    <path id="Path_208" data-name="Path 208" d="M1.5,1.5h9.833l6.588,32.917a4.917,4.917,0,0,0,4.917,3.958H46.733a4.917,4.917,0,0,0,4.917-3.958l3.933-20.625H13.792" fill="none" stroke="#26c6da" stroke-linecap="round" stroke-linejoin="round" stroke-width="5"/>
  </g>
</svg>
