<svg xmlns="http://www.w3.org/2000/svg" width="46.559" height="46.559" viewBox="0 0 46.559 46.559">
  <path id="Icon_awesome-user-circle" data-name="Icon awesome-user-circle" d="M23.28.563a23.28,23.28,0,1,0,23.28,23.28A23.276,23.276,0,0,0,23.28.563Zm0,9.011a8.261,8.261,0,1,1-8.261,8.261A8.261,8.261,0,0,1,23.28,9.574Zm0,32.291a17.988,17.988,0,0,1-13.752-6.4,10.466,10.466,0,0,1,9.246-5.613,2.3,2.3,0,0,1,.666.1,12.429,12.429,0,0,0,3.839.648,12.381,12.381,0,0,0,3.839-.648,2.3,2.3,0,0,1,.666-.1,10.466,10.466,0,0,1,9.246,5.613A17.988,17.988,0,0,1,23.28,41.865Z" transform="translate(0 -0.563)" fill="#fff"/>
</svg>
