<svg id="Group_5593" data-name="Group 5593" xmlns="http://www.w3.org/2000/svg" xmlns:xlink="http://www.w3.org/1999/xlink" width="30.426" height="30.307" viewBox="0 0 30.426 30.307">
  <defs>
    <clipPath id="clip-path">
      <rect id="Rectangle_1199" data-name="Rectangle 1199" width="30.426" height="30.307" fill="#26c6da"/>
    </clipPath>
  </defs>
  <g id="Group_5589" data-name="Group 5589" clip-path="url(#clip-path)">
    <path id="Path_9646" data-name="Path 9646" d="M.005,15.137C.005,12.926.016,10.715,0,8.5a1.628,1.628,0,0,1,1-1.63Q7.633,3.592,14.236.26a1.972,1.972,0,0,1,1.947,0q6.6,3.332,13.231,6.615A1.635,1.635,0,0,1,30.423,8.5c-.014,4.324-.03,8.648,0,12.972a2.015,2.015,0,0,1-1.273,2.072c-4.384,2.148-8.741,4.35-13.1,6.546a1.71,1.71,0,0,1-1.674,0Q7.772,26.76,1.146,23.473A1.818,1.818,0,0,1,0,21.623c.031-2.162.01-4.324.01-6.486H.005m13.826,11.59c0-3.554.01-6.963-.024-10.372,0-.221-.306-.524-.543-.646-2.068-1.062-4.151-2.093-6.231-3.131-1.394-.7-2.79-1.386-4.214-2.094a1.78,1.78,0,0,0-.057.276c0,3.337-.014,6.674.017,10.011a.974.974,0,0,0,.5.661c1.98,1.024,3.979,2.013,5.973,3.01,1.485.742,2.972,1.481,4.582,2.283m2.76-.046c.192-.07.306-.1.409-.15,3.419-1.708,6.833-3.427,10.262-5.116.41-.2.406-.48.406-.828q0-4.748,0-9.5c0-.181-.018-.363-.03-.592-.167.067-.257.1-.341.138-3.414,1.706-6.824,3.421-10.246,5.11a.744.744,0,0,0-.464.8c.013,2.478.007,4.956.007,7.434v2.7M25.954,8.226c-1.169-.588-2.243-1.106-3.294-1.668a1.049,1.049,0,0,0-1.088.014c-3.173,1.605-6.356,3.189-9.535,4.782-.184.092-.357.206-.606.35,1.144.572,2.2,1.08,3.24,1.633a1.026,1.026,0,0,0,1.079.008c1.872-.966,3.762-1.9,5.646-2.839l4.559-2.28M19.043,4.772c-1.165-.586-2.219-1.1-3.249-1.647a1.108,1.108,0,0,0-1.151,0C11.471,4.728,8.285,6.309,5.105,7.9c-.178.089-.346.2-.6.344C5.672,8.827,6.73,9.39,7.822,9.879a1.333,1.333,0,0,0,.995-.008c1.748-.832,3.471-1.717,5.2-2.585l5.023-2.514" transform="translate(0 0)" fill="#26c6da"/>
  </g>
</svg>
