<svg id="Group_5592" data-name="Group 5592" xmlns="http://www.w3.org/2000/svg" xmlns:xlink="http://www.w3.org/1999/xlink" width="61.302" height="61.063" viewBox="0 0 61.302 61.063">
  <defs>
    <clipPath id="clip-path">
      <rect id="Rectangle_1199" data-name="Rectangle 1199" width="61.302" height="61.063" fill="#fff"/>
    </clipPath>
  </defs>
  <g id="Group_5589" data-name="Group 5589" clip-path="url(#clip-path)">
    <path id="Path_9646" data-name="Path 9646" d="M.011,30.5c0-4.455.021-8.91-.011-13.365a3.28,3.28,0,0,1,2.022-3.284Q15.379,7.237,28.684.523A3.974,3.974,0,0,1,32.607.514q13.3,6.714,26.659,13.328a3.294,3.294,0,0,1,2.031,3.28c-.028,8.712-.06,17.424,0,26.136a4.059,4.059,0,0,1-2.565,4.175C49.9,51.76,41.125,56.2,32.34,60.622a3.446,3.446,0,0,1-3.372,0Q15.66,53.916,2.309,47.293A3.662,3.662,0,0,1,0,43.565c.061-4.355.02-8.712.02-13.068H.011M27.867,53.849c0-7.161.021-14.029-.049-20.9,0-.446-.616-1.055-1.094-1.3-4.166-2.14-8.364-4.217-12.555-6.308-2.808-1.4-5.621-2.793-8.491-4.218a3.587,3.587,0,0,0-.115.556c-.006,6.723-.028,13.447.035,20.17a1.963,1.963,0,0,0,1,1.332c3.99,2.063,8.017,4.056,12.035,6.065,2.992,1.5,5.988,2.985,9.231,4.6m5.56-.092c.387-.14.617-.2.825-.3,6.889-3.441,13.767-6.905,20.676-10.307.825-.406.818-.968.817-1.668q-.009-9.566-.006-19.131c0-.365-.036-.731-.06-1.194-.336.135-.518.194-.687.279-6.878,3.438-13.748,6.893-20.644,10.3a1.5,1.5,0,0,0-.934,1.607c.026,4.993.013,9.986.013,14.979v5.441M52.292,16.574c-2.354-1.184-4.519-2.228-6.636-3.36a2.113,2.113,0,0,0-2.193.028c-6.392,3.235-12.807,6.425-19.212,9.634-.371.186-.72.414-1.222.706,2.305,1.153,4.44,2.177,6.528,3.29a2.067,2.067,0,0,0,2.175.016c3.771-1.947,7.58-3.821,11.376-5.72l9.185-4.593M38.369,9.615C36.022,8.433,33.9,7.408,31.822,6.3A2.232,2.232,0,0,0,29.5,6.287c-6.391,3.238-12.809,6.424-19.217,9.631-.359.18-.7.4-1.2.693,2.342,1.172,4.475,2.308,6.675,3.292a2.686,2.686,0,0,0,2-.016c3.522-1.677,6.994-3.46,10.482-5.207,3.292-1.648,6.584-3.3,10.121-5.066" transform="translate(0 0)" fill="#fff"/>
  </g>
</svg>
