<svg xmlns="http://www.w3.org/2000/svg" xmlns:xlink="http://www.w3.org/1999/xlink" width="250" height="42.801" viewBox="0 0 250 42.801">
  <defs>
    <clipPath id="clip-path">
      <path id="Path_15" data-name="Path 15" d="M94.6,0A6.1,6.1,0,0,0,89.78,2.385L74.11,23.347l-5.079,6.794a5.03,5.03,0,0,0-.917,3.919,142.067,142.067,0,0,1,14.763-3.289L94.6,15.448l3.274,4.286,7.4-9.689-5.85-7.659A6.106,6.106,0,0,0,94.6,0Z" transform="translate(-68.031 0)" fill="#fff"/>
    </clipPath>
    <clipPath id="clip-path-2">
      <path id="Path_16" data-name="Path 16" d="M195.834,0a6.1,6.1,0,0,0-4.823,2.385l-5.851,7.66-.74.969-.74.969-7.4,9.689-.74.969-.74.969-2.708,3.458a5.02,5.02,0,0,0-1,2.263c5.027-.44,9.893-.6,14.56-.551l5.429-7.108.74-.969.74-.969,3.274-4.286,12.093,15.215c5.409.853,10.3,1.914,14.567,3.015a5.029,5.029,0,0,0-.929-4.13l-4.52-5.872L200.658,2.386A6.106,6.106,0,0,0,195.834,0Z" transform="translate(-171.091 0)" fill="#fff"/>
    </clipPath>
    <clipPath id="clip-path-3">
      <path id="Path_17" data-name="Path 17" d="M27.831,124.072a141.182,141.182,0,0,0-14.155,3.618A143.1,143.1,0,0,0,0,132.805l.2.467c9.621-2.131,19-4.031,28.422-5.224a211.077,211.077,0,0,1,28.245-1.765,234.311,234.311,0,0,1,28.285,1.895c4.721.586,9.438,1.322,14.171,2.168,2.37.413,4.734.884,7.115,1.351,1.191.233,2.378.49,3.565.761,1.2.241,2.386.533,3.58.808l.218-.458a129.358,129.358,0,0,0-27.87-8.622,155.221,155.221,0,0,0-29.043-2.974H56.68a146.012,146.012,0,0,0-28.848,2.859" transform="translate(0 -121.213)" fill="#fff"/>
    </clipPath>
  </defs>
  <g id="Group_12" data-name="Group 12" transform="translate(-143.164 -82.88)">
    <g id="Group_5603" data-name="Group 5603" transform="translate(-1 9)">
      <path id="Path_8" data-name="Path 8" d="M35.566,290.021a1.267,1.267,0,0,0,.949-.376,1.34,1.34,0,0,0,.367-.977,1.317,1.317,0,0,0-.367-.959,1.268,1.268,0,0,0-.949-.376,1.322,1.322,0,0,0-.977.376,1.3,1.3,0,0,0-.376.959,1.29,1.29,0,0,0,1.354,1.354" transform="translate(254.916 -188.562)" fill="#fff"/>
      <path id="Path_9" data-name="Path 9" d="M48.687,290.021a1.267,1.267,0,0,0,.949-.376,1.34,1.34,0,0,0,.367-.977,1.317,1.317,0,0,0-.367-.959,1.268,1.268,0,0,0-.949-.376,1.323,1.323,0,0,0-.978.376,1.3,1.3,0,0,0-.376.959,1.29,1.29,0,0,0,1.354,1.354" transform="translate(245.123 -188.562)" fill="#fff"/>
      <path id="Path_11" data-name="Path 11" d="M220.854,284.294a1.289,1.289,0,0,0,1.354,1.354,1.268,1.268,0,0,0,.95-.376,1.34,1.34,0,0,0,.366-.978,1.317,1.317,0,0,0-.366-.959,1.269,1.269,0,0,0-.95-.376,1.324,1.324,0,0,0-.978.376,1.3,1.3,0,0,0-.376.959" transform="translate(115.61 -185.298)" fill="#fff"/>
      <path id="Path_12" data-name="Path 12" d="M215.612,274.083a1.267,1.267,0,0,0,.949-.376,1.341,1.341,0,0,0,.367-.978,1.317,1.317,0,0,0-.367-.959,1.267,1.267,0,0,0-.949-.376,1.322,1.322,0,0,0-.978.376,1.3,1.3,0,0,0-.376.959,1.289,1.289,0,0,0,1.354,1.354" transform="translate(120.533 -176.667)" fill="#fff"/>
      <path id="Path_13" data-name="Path 13" d="M209.088,285.647a1.267,1.267,0,0,0,.949-.376,1.34,1.34,0,0,0,.367-.977,1.317,1.317,0,0,0-.367-.959,1.268,1.268,0,0,0-.949-.376,1.323,1.323,0,0,0-.978.376,1.3,1.3,0,0,0-.376.959,1.289,1.289,0,0,0,1.354,1.354" transform="translate(125.403 -185.298)" fill="#fff"/>
      <g id="Group_5602" data-name="Group 5602">
        <g id="Group_5601" data-name="Group 5601">
          <path id="Path_10" data-name="Path 10" d="M20.7,304.792a5.519,5.519,0,0,1-.094,1.119,1.4,1.4,0,0,1-.338.7,1.273,1.273,0,0,1-.639.348,4.4,4.4,0,0,1-1,.094H5.3a2.95,2.95,0,0,1-1.814-.479,1.692,1.692,0,0,1-.63-1.438,3.943,3.943,0,0,1,.075-.7,10.2,10.2,0,0,1,.3-1.119l-2.293-.7a7.553,7.553,0,0,0-.489,1.6,7.907,7.907,0,0,0-.15,1.429,3.6,3.6,0,0,0,.329,1.608,2.953,2.953,0,0,0,.9,1.09,3.831,3.831,0,0,0,1.354.62,6.834,6.834,0,0,0,1.682.2H19.909a4.749,4.749,0,0,0,1.607-.235,2.537,2.537,0,0,0,1.034-.658,2.5,2.5,0,0,0,.555-1.015,4.821,4.821,0,0,0,.169-1.326v-5.17H20.7Z" transform="translate(280.228 -198.577)" fill="#fff"/>
          <path id="Path_14" data-name="Path 14" d="M194.2,287.241a3.741,3.741,0,0,0-.846-1.372,3.86,3.86,0,0,0-1.382-.884,5.246,5.246,0,0,0-1.9-.32,4.276,4.276,0,0,0-1.72.338,3.79,3.79,0,0,0-1.335.959,4.719,4.719,0,0,0-.884,1.485,6.672,6.672,0,0,0-.4,1.9q-.057.432-.122.743a1.993,1.993,0,0,1-.188.536.926.926,0,0,1-.338.357,1.1,1.1,0,0,1-.573.132H172.43a.551.551,0,0,0-.072.009.521.521,0,0,0-.077-.009,1.783,1.783,0,0,1-1.241-.423,1.5,1.5,0,0,1-.47-1.175v-1.091a4.082,4.082,0,0,0-.244-1.429,3.05,3.05,0,0,0-.752-1.147,3.459,3.459,0,0,0-1.316-.761,6.094,6.094,0,0,0-1.936-.273h-1.5l3.647-3.8-1.748-1.617-5.113,5.414v2.106h4.08q2.312,0,2.312,1.955v.489a1.825,1.825,0,0,1-.414,1.344,1.92,1.92,0,0,1-1.372.4H145.823a.552.552,0,0,0-.072.009.521.521,0,0,0-.077-.009,2.247,2.247,0,0,1-1.541-.5,1.66,1.66,0,0,1-.564-1.307v-4.493h-2.557v4.568a2.339,2.339,0,0,1-.282,1.4,1.205,1.205,0,0,1-.959.329,1.8,1.8,0,0,1-.714-.122.948.948,0,0,1-.423-.329,1.309,1.309,0,0,1-.2-.479,2.827,2.827,0,0,1-.056-.573v-3.158h-2.557v2.933a2.273,2.273,0,0,1-.291,1.41,1.231,1.231,0,0,1-.95.32,1.732,1.732,0,0,1-.705-.122,1.024,1.024,0,0,1-.423-.329,1.221,1.221,0,0,1-.207-.479,2.823,2.823,0,0,1-.056-.573v-3.158h-2.557v2.933a1.682,1.682,0,0,1-.451,1.372,2.449,2.449,0,0,1-1.5.357c-1.6,0-15.862-.024-16.04-.066a1.347,1.347,0,0,1-.517-.244,1.1,1.1,0,0,1-.357-.508,2.241,2.241,0,0,1-.122-.78V279.4H109.07v10.941a2.6,2.6,0,0,0,.357,1.4,2.464,2.464,0,0,0,1.006.9,4.777,4.777,0,0,0,1.457.451c.517.078,15.386.119,17.124.122h.152s0,0,.007,0a7.237,7.237,0,0,0,2.147-.287,2.583,2.583,0,0,0,1.307-.874,2.025,2.025,0,0,0,1.006.855,4.056,4.056,0,0,0,1.645.31,2.922,2.922,0,0,0,2.557-1.166,2.143,2.143,0,0,0,1,.855,3.907,3.907,0,0,0,1.636.31,3.627,3.627,0,0,0,1.523-.3,2.452,2.452,0,0,0,1.053-.9,2.281,2.281,0,0,0,.6.573,3.373,3.373,0,0,0,.771.376,4.388,4.388,0,0,0,.827.2,5.688,5.688,0,0,0,.771.057.129.129,0,0,0,.036-.008c.038,0,.072.008.112.008h21.045a4.827,4.827,0,0,0,1.748-.273,2.287,2.287,0,0,0,1.109-.912,2.757,2.757,0,0,0,1.053.865,3.181,3.181,0,0,0,1.41.32.163.163,0,0,0,.059-.013,1.55,1.55,0,0,0,.184.013h12.192a3.783,3.783,0,0,0,1.391-.207,2.521,2.521,0,0,0,.977-.79,4.794,4.794,0,0,0,1.5.855,5.189,5.189,0,0,0,1.542.216,5.024,5.024,0,0,0,1.485-.225,3.775,3.775,0,0,0,1.335-.733,3.449,3.449,0,0,0,.95-1.354,5.227,5.227,0,0,0,.348-1.993,5.127,5.127,0,0,0-.291-1.748m-2.754,3.346a1.579,1.579,0,0,1-1.26.545,2.554,2.554,0,0,1-1.025-.207,4.139,4.139,0,0,1-1.081-.752,8.335,8.335,0,0,1,.2-1.3,4.214,4.214,0,0,1,.395-1.044,2.251,2.251,0,0,1,.62-.733,1.426,1.426,0,0,1,.875-.273,1.527,1.527,0,0,1,1.278.611,2.767,2.767,0,0,1,.47,1.72,2.111,2.111,0,0,1-.47,1.429" transform="translate(199.043 -182.644)" fill="#fff"/>
          <g id="Group_5600" data-name="Group 5600">
            <path id="Path_1" data-name="Path 1" d="M.5,204.582H2.88l2.01,2.838c.749,1.045,2.306,3.311,2.306,3.311s1.577-2.247,2.305-3.291l2.01-2.858H13.9v12.769H11.136v-8.08s-.493.808-1.163,1.774L7.2,215.007l-2.8-3.981c-.65-.926-1.143-1.754-1.143-1.754v8.08H.5Z" transform="translate(280.082 -126.799)" fill="#fff"/>
            <path id="Path_2" data-name="Path 2" d="M78.817,204.582h9.991v2.365H81.576v2.6h6.858v2.345H81.576v3.094h7.508v2.365H78.817Z" transform="translate(221.624 -126.8)" fill="#fff"/>
            <path id="Path_3" data-name="Path 3" d="M141.6,204.582h2.759v7.094c.079-.138.709-1.084,1.163-1.675l4.059-5.419h3.212l-4.454,5.833,5.005,6.936h-3.232l-3.468-4.907-2.286,2.8v2.109H141.6Z" transform="translate(174.766 -126.799)" fill="#fff"/>
            <path id="Path_4" data-name="Path 4" d="M207.255,215.254l1.005-2.128a6.62,6.62,0,0,0,4.2,1.4c1.064,0,2.365-.493,2.365-1.5,0-.985-1.143-1.241-2.266-1.517-2.384-.552-4.848-1.36-4.848-4.02,0-2.463,2.306-3.685,4.749-3.685a8.084,8.084,0,0,1,4.67,1.36l-1.005,2.128a6.843,6.843,0,0,0-3.665-1.025c-.67,0-1.931.256-1.931,1.222,0,.828.926,1.123,2.188,1.419,2.266.532,4.986,1.379,4.986,4.119,0,2.759-2.68,3.961-5.242,3.961a7.479,7.479,0,0,1-5.2-1.734" transform="translate(125.76 -126.219)" fill="#fff"/>
            <path id="Path_5" data-name="Path 5" d="M272.368,204.582h2.759v4.985h5.459v-4.985h2.759v12.77h-2.759v-5.419h-5.459v5.419h-2.759Z" transform="translate(77.161 -126.8)" fill="#fff"/>
            <path id="Path_6" data-name="Path 6" d="M342.571,204.583h2.719l5.557,12.77h-2.8l-.867-2.03H340.7l-.867,2.03h-2.818Zm3.744,8.592-1.478-3.646c-.394-.966-.887-2.246-.907-2.286-.02.04-.512,1.32-.906,2.286l-1.478,3.646Z" transform="translate(28.911 -126.8)" fill="#fff"/>
            <path id="Path_7" data-name="Path 7" d="M407.628,206.947h-4.335v-2.365h11.43v2.365h-4.335v10.4h-2.759Z" transform="translate(-20.559 -126.8)" fill="#fff"/>
            <g id="Group_3" data-name="Group 3" transform="translate(161.418 73.88)" clip-path="url(#clip-path)">
              <rect id="Rectangle_2" data-name="Rectangle 2" width="37.41" height="34.061" transform="translate(-0.163 0)" fill="#fff"/>
            </g>
            <g id="Group_5" data-name="Group 5" transform="translate(187.556 73.88)" clip-path="url(#clip-path-2)">
              <rect id="Rectangle_3" data-name="Rectangle 3" width="55.284" height="61.648" transform="translate(-14.741 24.978) rotate(-59.452)" fill="#fff"/>
            </g>
            <g id="Group_7" data-name="Group 7" transform="translate(144.164 104.622)" clip-path="url(#clip-path-3)">
              <rect id="Rectangle_4" data-name="Rectangle 4" width="114.402" height="21.257" transform="matrix(0.997, -0.081, 0.081, 0.997, -0.976, 0.079)" fill="#fff"/>
            </g>
          </g>
        </g>
      </g>
    </g>
  </g>
</svg>
